<svg width="20" height="20" viewBox="0 0 20 20" fill="none" xmlns="http://www.w3.org/2000/svg">
<path d="M2.5 9.99996C2.5 11.9891 3.29018 13.8967 4.6967 15.3033C6.10322 16.7098 8.01088 17.5 10 17.5C11.9891 17.5 13.8968 16.7098 15.3033 15.3033C16.7098 13.8967 17.5 11.9891 17.5 9.99996M2.5 9.99996C2.5 8.01084 3.29018 6.10318 4.6967 4.69666C6.10322 3.29014 8.01088 2.49996 10 2.49996C11.9891 2.49996 13.8968 3.29014 15.3033 4.69666C16.7098 6.10318 17.5 8.01084 17.5 9.99996M2.5 9.99996H1M17.5 9.99996H19M17.5 9.99996H10M1.543 13.077L2.953 12.564M17.048 7.43396L18.458 6.92096M3.106 15.785L4.256 14.821M15.746 5.17896L16.895 4.21496M5.501 17.795L6.251 16.495M13.751 3.50496L14.501 2.20496M8.438 18.863L8.698 17.386M11.303 2.61396L11.563 1.13696M11.563 18.863L11.303 17.386M8.698 2.61396L8.438 1.13696M14.5 17.794L13.75 16.495M5.5 2.20496L10 9.99996M16.894 15.785L15.745 14.821M4.256 5.17796L3.106 4.21396M18.458 13.078L17.048 12.565M2.954 7.43496L1.544 6.92096M10.002 9.99996L6.252 16.495" stroke="black" stroke-width="1.5" stroke-linecap="round" stroke-linejoin="round"/>
</svg>
