<svg width="24" height="24" viewBox="0 0 24 24" fill="none" xmlns="http://www.w3.org/2000/svg">
<path d="M12 16.4999V9.74992M12 9.74992L15 12.7499M12 9.74992L9.00001 12.7499M6.75001 19.4999C5.67944 19.5011 4.64353 19.1205 3.82831 18.4266C3.01309 17.7327 2.47196 16.7709 2.30212 15.7138C2.13227 14.6568 2.34484 13.5739 2.90163 12.6595C3.45842 11.7451 4.32297 11.0592 5.34001 10.7249C5.07871 9.38609 5.34877 7.99812 6.09299 6.85494C6.83722 5.71175 7.99718 4.90312 9.32723 4.60027C10.6573 4.29743 12.053 4.52415 13.2188 5.23244C14.3846 5.94072 15.2289 7.07494 15.573 8.39492C16.105 8.2219 16.6748 8.20108 17.218 8.33482C17.7612 8.46856 18.2562 8.75153 18.6471 9.15176C19.038 9.552 19.3092 10.0536 19.43 10.5998C19.5509 11.146 19.5166 11.7152 19.331 12.2429C20.1497 12.5556 20.833 13.145 21.2626 13.9089C21.6921 14.6727 21.8407 15.5628 21.6826 16.4248C21.5245 17.2868 21.0697 18.0662 20.3971 18.6279C19.7244 19.1896 18.8763 19.4981 18 19.4999H6.75001Z" stroke="#313131" stroke-width="1.5" stroke-linecap="round" stroke-linejoin="round"/>
</svg>
