<svg width="17" height="17" viewBox="0 0 17 17" fill="none" xmlns="http://www.w3.org/2000/svg">
<path d="M11.1562 12.2188V14.6094C11.1562 15.0493 10.7992 15.4063 10.3594 15.4063H3.45312C3.24178 15.4063 3.03909 15.3223 2.88965 15.1729C2.74021 15.0234 2.65625 14.8207 2.65625 14.6094V5.57813C2.65625 5.13825 3.01325 4.78125 3.45312 4.78125H4.78125C5.13724 4.78101 5.49263 4.81039 5.84375 4.86908M11.1562 12.2188H13.5469C13.9867 12.2188 14.3437 11.8618 14.3437 11.4219V7.96875C14.3437 4.80958 12.0466 2.18804 9.03125 1.68158C8.68013 1.62289 8.32474 1.59351 7.96875 1.59375H6.64062C6.20075 1.59375 5.84375 1.95075 5.84375 2.39063V4.86979M11.1562 12.2188H6.64062C6.42928 12.2188 6.22659 12.1348 6.07715 11.9854C5.92771 11.8359 5.84375 11.6332 5.84375 11.4219V4.86979M14.3437 9.5625V8.23438C14.3437 7.60034 14.0919 6.99228 13.6436 6.54395C13.1952 6.09562 12.5872 5.84375 11.9531 5.84375H10.8906C10.6793 5.84375 10.4766 5.75979 10.3271 5.61035C10.1777 5.46091 10.0937 5.25822 10.0937 5.04688V3.98438C10.0937 3.67044 10.0319 3.35957 9.91177 3.06952C9.79163 2.77948 9.61554 2.51594 9.39355 2.29395C9.17156 2.07196 8.90802 1.89587 8.61798 1.77573C8.32793 1.65559 8.01707 1.59375 7.70312 1.59375H6.90625" stroke="#919191" stroke-width="1.5" stroke-linecap="round" stroke-linejoin="round"/>
</svg>
