<svg xmlns="http://www.w3.org/2000/svg" width="17" height="17" fill="none" viewBox="0 0 17 17">
  <path stroke="#919191" stroke-linecap="round" stroke-linejoin="round" stroke-width="1.5" d="M11.156 12.219v2.39c0 .44-.357.797-.797.797H3.453a.797.797 0 0 1-.797-.797V5.58c0-.44.357-.798.797-.798h1.328c.356 0 .712.03 1.063.088m5.312 7.35h2.39c.44 0 .798-.357.798-.797V7.969a6.377 6.377 0 0 0-6.375-6.375H6.64a.797.797 0 0 0-.797.797V4.87m5.312 7.349H6.641a.797.797 0 0 1-.797-.797V4.87m8.5 4.692V8.235a2.39 2.39 0 0 0-2.39-2.39H10.89a.797.797 0 0 1-.797-.797V3.984a2.39 2.39 0 0 0-2.39-2.39h-.798"/>
</svg>
