<svg width="21" height="21" viewBox="0 0 21 21" fill="none" xmlns="http://www.w3.org/2000/svg">
<path d="M5.90625 2.625V4.59375M15.0938 2.625V4.59375M2.625 16.4062V6.5625C2.625 6.04036 2.83242 5.5396 3.20163 5.17038C3.57085 4.80117 4.07161 4.59375 4.59375 4.59375H16.4062C16.9284 4.59375 17.4292 4.80117 17.7984 5.17038C18.1676 5.5396 18.375 6.04036 18.375 6.5625V16.4062M2.625 16.4062C2.625 16.9284 2.83242 17.4292 3.20163 17.7984C3.57085 18.1676 4.07161 18.375 4.59375 18.375H16.4062C16.9284 18.375 17.4292 18.1676 17.7984 17.7984C18.1676 17.4292 18.375 16.9284 18.375 16.4062M2.625 16.4062V9.84375C2.625 9.32161 2.83242 8.82085 3.20163 8.45163C3.57085 8.08242 4.07161 7.875 4.59375 7.875H16.4062C16.9284 7.875 17.4292 8.08242 17.7984 8.45163C18.1676 8.82085 18.375 9.32161 18.375 9.84375V16.4062" stroke="#919191" stroke-width="1.5" stroke-linecap="round" stroke-linejoin="round"/>
</svg>
