<svg width="17" height="15" viewBox="0 0 17 15" fill="none" xmlns="http://www.w3.org/2000/svg">
<g clip-path="url(#clip0_111_147)">
<path d="M12.8385 4.56714C12.5286 4.38804 12.1302 4.38804 11.776 4.56714L9.29688 6.04475L7.61458 6.98505L5.17969 8.46266C4.86979 8.64177 4.47135 8.64177 4.11719 8.46266L2.21354 7.29848C1.90365 7.11938 1.68229 6.76117 1.68229 6.35819V4.11938C1.68229 3.76117 1.85937 3.40296 2.21354 3.17908L4.11719 2.05968C4.42708 1.88057 4.82552 1.88057 5.17969 2.05968L7.08333 3.22386C7.39323 3.40296 7.61458 3.76117 7.61458 4.16416V5.64177L9.29688 4.65669V3.1343C9.29688 2.7761 9.11979 2.41789 8.76562 2.19401L5.22396 0.0895286C4.91406 -0.0895759 4.51562 -0.0895759 4.16146 0.0895286L0.53125 2.23878C0.177083 2.41789 0 2.7761 0 3.1343V7.34326C0 7.70147 0.177083 8.05968 0.53125 8.28356L4.11719 10.388C4.42708 10.5671 4.82552 10.5671 5.17969 10.388L7.61458 8.9552L9.29688 7.97013L11.7318 6.53729C12.0417 6.35819 12.4401 6.35819 12.7943 6.53729L14.6979 7.65669C15.0078 7.8358 15.2292 8.19401 15.2292 8.59699V10.8358C15.2292 11.194 15.0521 11.5522 14.6979 11.7761L12.8385 12.8955C12.5286 13.0746 12.1302 13.0746 11.776 12.8955L9.8724 11.7761C9.5625 11.597 9.34115 11.2388 9.34115 10.8358V9.40296L7.65885 10.388V11.8656C7.65885 12.2239 7.83594 12.5821 8.1901 12.8059L11.776 14.9104C12.0859 15.0895 12.4844 15.0895 12.8385 14.9104L16.4245 12.8059C16.7344 12.6268 16.9557 12.2686 16.9557 11.8656V7.61192C16.9557 7.25371 16.7786 6.8955 16.4245 6.67162L12.8385 4.56714Z" fill="#8247E5"/>
</g>
<defs>
<clipPath id="clip0_111_147">
<rect width="17" height="15" fill="white"/>
</clipPath>
</defs>
</svg>
